# xmcd CD database file
#
# Track frame offsets:
#	150
#	47161
#	79817
#	114390
#	164175
#	185307
#	209343
#	248616
#	294988
#
# Disc length: 4271 seconds
#
# Revision: 4
# Processed by: cddbd v1.5.2PL0 Copyright (c) Steve Scherf et al.
# Submitted via: CDex 1.81
#
DISCID=7b10ad09
DTITLE=Manhattan Jazz Orchestra - Super Collection [Disc 2]
DYEAR=2011
DGENRE=Jazz
TTITLE0=Autumn Leaves
TTITLE1=La Fiesta
TTITLE2=Concierto de Aranjuez
TTITLE3=Take Five
TTITLE4=I Got Rhythm
TTITLE5=Route 66
TTITLE6=Reacardo Bossa Nova
TTITLE7=MANTECA
TTITLE8=Smoke Gets In Your Eyes
EXTD=YEAR: 2011
EXTT0=
EXTT1=
EXTT2=
EXTT3=
EXTT4=
EXTT5=
EXTT6=
EXTT7=
EXTT8=
PLAYORDER=
